<svg width="138" height="28" viewBox="0 0 138 28" fill="none" xmlns="http://www.w3.org/2000/svg">
<path d="M0.917509 14.368C0.917509 12.0232 1.44114 10.1558 2.4884 8.76562C3.54492 7.37546 4.98606 6.68038 6.81181 6.68038C8.27612 6.68038 9.48556 7.22718 10.4401 8.32077V0.647058H14.4716V22H10.8433L10.6487 20.4013C9.64775 21.6525 8.35953 22.278 6.78401 22.278C5.01386 22.278 3.59126 21.583 2.5162 20.1928C1.45041 18.7934 0.917509 16.8518 0.917509 14.368ZM4.93509 14.6599C4.93509 16.0686 5.18068 17.1483 5.67188 17.899C6.16307 18.6497 6.87669 19.025 7.81273 19.025C9.05461 19.025 9.93042 18.5014 10.4401 17.4542V11.5182C9.93968 10.4709 9.07315 9.94727 7.84053 9.94727C5.90357 9.94727 4.93509 11.5182 4.93509 14.6599ZM24.5086 22.278C22.3029 22.278 20.5049 21.6015 19.1148 20.2484C17.7339 18.8953 17.0434 17.0927 17.0434 14.8406V14.4514C17.0434 12.9408 17.3354 11.5923 17.9192 10.406C18.5031 9.21048 19.3279 8.29297 20.3937 7.65349C21.4688 7.00475 22.6921 6.68038 24.0638 6.68038C26.1212 6.68038 27.7384 7.32912 28.9154 8.62661C30.1017 9.9241 30.6949 11.7637 30.6949 14.1456V15.786H21.1166C21.2464 16.7683 21.6356 17.5561 22.2844 18.1492C22.9424 18.7424 23.7718 19.0389 24.7727 19.0389C26.3205 19.0389 27.5299 18.4782 28.4011 17.3568L30.3751 19.5672C29.7727 20.4198 28.9571 21.0871 27.9284 21.569C26.8997 22.0417 25.7598 22.278 24.5086 22.278ZM24.0499 9.93336C23.2528 9.93336 22.6041 10.2021 22.1036 10.7397C21.6124 11.2772 21.2973 12.0464 21.1583 13.0473H26.7468V12.7276C26.7282 11.8379 26.4873 11.1521 26.0239 10.6702C25.5605 10.179 24.9025 9.93336 24.0499 9.93336ZM39.9116 22.278C37.7059 22.278 35.908 21.6015 34.5178 20.2484C33.1369 18.8953 32.4465 17.0927 32.4465 14.8406V14.4514C32.4465 12.9408 32.7384 11.5923 33.3223 10.406C33.9061 9.21048 34.731 8.29297 35.7968 7.65349C36.8718 7.00475 38.0952 6.68038 39.4668 6.68038C41.5242 6.68038 43.1415 7.32912 44.3185 8.62661C45.5047 9.9241 46.0979 11.7637 46.0979 14.1456V15.786H36.5196C36.6494 16.7683 37.0386 17.5561 37.6874 18.1492C38.3454 18.7424 39.1749 19.0389 40.1758 19.0389C41.7235 19.0389 42.9329 18.4782 43.8041 17.3568L45.7781 19.5672C45.1757 20.4198 44.3602 21.0871 43.3315 21.569C42.3027 22.0417 41.1628 22.278 39.9116 22.278ZM39.4529 9.93336C38.6559 9.93336 38.0071 10.2021 37.5067 10.7397C37.0155 11.2772 36.7004 12.0464 36.5614 13.0473H42.1498V12.7276C42.1313 11.8379 41.8903 11.1521 41.4269 10.6702C40.9635 10.179 40.3055 9.93336 39.4529 9.93336ZM61.9319 14.6182C61.9319 16.9352 61.4036 18.7934 60.3471 20.1928C59.2998 21.583 57.8819 22.278 56.0932 22.278C54.5733 22.278 53.3453 21.7498 52.4092 20.6932V27.7831H48.3917V6.95841H52.1173L52.2563 8.43199C53.2294 7.26425 54.4991 6.68038 56.0654 6.68038C57.9189 6.68038 59.3601 7.36619 60.3888 8.73782C61.4175 10.1095 61.9319 12.0001 61.9319 14.4097V14.6182ZM57.9143 14.3263C57.9143 12.9269 57.6641 11.8472 57.1636 11.0872C56.6724 10.3272 55.9542 9.94727 55.0088 9.94727C53.7484 9.94727 52.8819 10.4292 52.4092 11.393V17.5515C52.9004 18.5431 53.7762 19.0389 55.0367 19.0389C56.9551 19.0389 57.9143 17.4681 57.9143 14.3263ZM64.6427 20.026C64.6427 19.3865 64.8558 18.8675 65.2822 18.469C65.7178 18.0705 66.2599 17.8712 66.9087 17.8712C67.5667 17.8712 68.1088 18.0705 68.5352 18.469C68.9707 18.8675 69.1885 19.3865 69.1885 20.026C69.1885 20.6562 68.9754 21.1705 68.5491 21.569C68.1227 21.9583 67.5759 22.1529 66.9087 22.1529C66.2506 22.1529 65.7085 21.9583 65.2822 21.569C64.8558 21.1705 64.6427 20.6562 64.6427 20.026ZM76.4174 6.95841L76.5425 8.69612C77.6176 7.35229 79.0587 6.68038 80.8659 6.68038C82.46 6.68038 83.6463 7.1484 84.4247 8.08444C85.2032 9.02049 85.6018 10.4199 85.6203 12.2827V22H81.6027V12.3801C81.6027 11.5274 81.4174 10.9111 81.0466 10.5311C80.6759 10.1419 80.0596 9.94727 79.1977 9.94727C78.0671 9.94727 77.2191 10.4292 76.6537 11.393V22H72.6361V6.95841H76.4174ZM95.6017 22.278C93.396 22.278 91.598 21.6015 90.2078 20.2484C88.8269 18.8953 88.1365 17.0927 88.1365 14.8406V14.4514C88.1365 12.9408 88.4284 11.5923 89.0123 10.406C89.5962 9.21048 90.421 8.29297 91.4868 7.65349C92.5619 7.00475 93.7852 6.68038 95.1568 6.68038C97.2143 6.68038 98.8315 7.32912 100.009 8.62661C101.195 9.9241 101.788 11.7637 101.788 14.1456V15.786H92.2097C92.3394 16.7683 92.7287 17.5561 93.3774 18.1492C94.0354 18.7424 94.8649 19.0389 95.8658 19.0389C97.4135 19.0389 98.623 18.4782 99.4941 17.3568L101.468 19.5672C100.866 20.4198 100.05 21.0871 99.0215 21.569C97.9928 22.0417 96.8528 22.278 95.6017 22.278ZM95.1429 9.93336C94.3459 9.93336 93.6972 10.2021 93.1967 10.7397C92.7055 11.2772 92.3904 12.0464 92.2514 13.0473H97.8398V12.7276C97.8213 11.8379 97.5804 11.1521 97.117 10.6702C96.6536 10.179 95.9956 9.93336 95.1429 9.93336ZM117.163 16.5366L119.137 6.95841H123.016L119.179 22H115.815L112.965 12.533L110.115 22H106.765L102.928 6.95841H106.806L108.767 16.5227L111.519 6.95841H114.425L117.163 16.5366ZM133.164 17.8434C133.164 17.3522 132.918 16.9676 132.427 16.6896C131.945 16.4023 131.167 16.1474 130.092 15.925C126.514 15.1743 124.726 13.6544 124.726 11.3652C124.726 10.0307 125.277 8.91854 126.38 8.02884C127.492 7.12986 128.942 6.68038 130.731 6.68038C132.64 6.68038 134.165 7.12986 135.305 8.02884C136.454 8.92781 137.029 10.0955 137.029 11.5321H133.011C133.011 10.9575 132.826 10.4848 132.455 10.1141C132.084 9.73411 131.505 9.54412 130.717 9.54412C130.041 9.54412 129.517 9.69704 129.146 10.0029C128.776 10.3087 128.59 10.698 128.59 11.1706C128.59 11.6155 128.799 11.9769 129.216 12.2549C129.642 12.5237 130.356 12.76 131.357 12.9639C132.358 13.1585 133.201 13.381 133.887 13.6312C136.009 14.4097 137.07 15.7582 137.07 17.6766C137.07 19.0482 136.482 20.1603 135.305 21.013C134.128 21.8563 132.608 22.278 130.745 22.278C129.485 22.278 128.363 22.0556 127.381 21.6108C126.408 21.1566 125.643 20.5403 125.087 19.7618C124.531 18.9741 124.253 18.1261 124.253 17.2178H128.062C128.099 17.9314 128.363 18.4782 128.854 18.8582C129.346 19.2382 130.004 19.4282 130.828 19.4282C131.598 19.4282 132.177 19.2845 132.566 18.9972C132.965 18.7007 133.164 18.3161 133.164 17.8434Z" fill="white"/>
</svg>
